<?xml version="1.0" encoding="UTF-8"?>
<svg width="597px" height="125px" viewBox="0 0 597 125" version="1.1" xmlns="http://www.w3.org/2000/svg">
    <title>bassguitarfretboard</title>
    <g id="Page-1" stroke="none" stroke-width="1" fill="none" fill-rule="evenodd">
        <g id="Bassguitarnotes" transform="translate(0.000000, 11.000000)">
            <path d="M595.139808,0.4999542 L595.139808,101.5 M548.139808,0.4999542 L548.139808,101.5 M501.139808,0.4999542 L501.139808,101.5 M454.139808,0.4999542 L454.139808,101.5 M407.139808,0.4999542 L407.139808,101.5 M362.139806,0.4999542 L362.139806,101.5 M313.139808,0.4999542 L313.139808,101.5 M266.139808,0.4999542 L266.139808,101.5 M219.139808,0.4999542 L219.139808,101.5 M172.139808,0.4999542 L172.139808,101.5 M125.139808,0.4999542 L125.139808,101.5 M78.139808,0.4999542 L78.139808,101.5 M31.139808,101.00005 L378.092434,101.00005 L485.583273,101.00005 L533.417969,101.00005 L595.13981,101.00005 M31.139808,76.000046 L595.13981,76.000046 M31.139808,51.000046 L595.13981,51.000046 M31.139808,26.000046 L595.13981,26.000046 M31.139808,1.0000462 L595.13981,1.0000462 M30.139808,0.4999542 L30.139808,101.5" id="path3071" stroke="currentColor" stroke-width="0.99990845"></path>
        </g>
    </g>
</svg>